<svg xmlns="http://www.w3.org/2000/svg" viewBox="0 0 651 412.1"><script xmlns=""/><style>.st0,.st1{fill:#fff}.st1{opacity:.5}</style><path class="st0" d="M28.8 321.7V133.6h236.4V78h-242C10.9 78 1 88 1 100.3v311.8h27.8v-90.4zm94.1-226.6c6.5 0 11.8 5.3 11.8 11.8 0 6.5-5.3 11.8-11.8 11.8s-11.8-5.3-11.8-11.8c0-6.5 5.3-11.8 11.8-11.8zm-40.6 0c6.5 0 11.8 5.3 11.8 11.8 0 6.5-5.3 11.8-11.8 11.8s-11.8-5.3-11.8-11.8c0-6.5 5.3-11.8 11.8-11.8zm-41.7 0c6.5 0 11.8 5.3 11.8 11.8 0 6.5-5.3 11.8-11.8 11.8-6.5 0-11.8-5.3-11.8-11.8 0-6.5 5.3-11.8 11.8-11.8z"/><path class="st1" d="M28.8 321.7l50-50 27.3 27.4 109.8-109.9 49.3 49.3V133.6H28.8v188.1zM94 151.8c23 0 41.7 18.7 41.7 41.7S117 235.2 94 235.2s-41.7-18.7-41.7-41.7S71 151.8 94 151.8z"/><path class="st0" d="M28.8 322.9v89.2h23.5v-4.7H263v4.7h2.2v-89.2H28.8zM263 379.6H52.3v-27.8H263v27.8z"/><circle class="st1" cx="40.6" cy="106.9" r="11.8"/><circle class="st1" cx="82.3" cy="106.9" r="11.8"/><circle class="st1" cx="122.9" cy="106.9" r="11.8"/><path class="st0" d="M651 .5H287.4c-12.3 0-22.2 9.9-22.2 22.2V411.6H294V55.5h357v356.1V.5zM305.8 40.6c-6.5 0-11.8-5.3-11.8-11.8S299.3 17 305.8 17s11.8 5.3 11.8 11.8-5.3 11.8-11.8 11.8zm40.6 0c-6.5 0-11.8-5.3-11.8-11.8S339.9 17 346.4 17s11.8 5.3 11.8 11.8-5.3 11.8-11.8 11.8zm41.7 0c-6.5 0-11.8-5.3-11.8-11.8S381.6 17 388.1 17s11.8 5.3 11.8 11.8-5.3 11.8-11.8 11.8z"/><path class="st1" d="M544.3 351.8V324H651v-27.9H377.4v-27.8H651v-80.2H377.4v-27.8H651v-27.8H544.3v-27.8H651V55.5H294v356.1h357v-59.8H544.3zm-48.2-138h128.3v27.8H496.1v-27.8zM332.5 104.7h157.2v27.8H332.5v-27.8zm0 109.1h106.9v27.8H332.5v-27.8zm0 110.2h157.2v27.8H332.5V324zm0 83.4v-27.8h288.7v27.8H332.5z"/><circle class="st1" cx="305.8" cy="28.8" r="11.8"/><circle class="st1" cx="346.4" cy="28.8" r="11.8"/><circle class="st1" cx="388.1" cy="28.8" r="11.8"/><path class="st0" d="M332.5 104.7h157.2v27.8H332.5zM377.4 160.3H651v27.8H377.4zM377.4 268.3H651v27.8H377.4zM332.5 379.6h288.7v27.8H332.5z"/><path class="st1" d="M52.3 351.8H263v27.8H52.3zM52.3 407.4H263v4.7H52.3z"/><path class="st0" d="M544.3 104.7H651v27.8H544.3zM332.5 324h157.2v27.8H332.5zM544.3 324H651v27.8H544.3zM332.5 213.8h106.9v27.8H332.5zM496.1 213.8h128.3v27.8H496.1z"/><circle class="st0" cx="94" cy="193.5" r="41.7"/></svg>