<svg xmlns="http://www.w3.org/2000/svg" xmlns:xlink="http://www.w3.org/1999/xlink" width="570" height="613" viewBox="0 0 570 613"><script xmlns=""/><title>Drupalize.me Hero illustration</title><defs><path id="a" d="M94.182.087V53.7H.188V.088h93.994z"/><path d="M52.032 14.353C43.092 9.05 38.046 3.426 36.264.97c0 0-.63-.97-1.35-.97-.714 0-1.297.972-1.297.972-1.758 2.455-6.92 8.106-15.903 13.432C7.552 20.462 0 30.754 0 43.38c0 19.137 15.632 34.65 34.913 34.65 19.286 0 34.918-15.513 34.918-34.65 0-12.658-7.586-22.978-17.798-29.027" id="d"/><filter x="-57.3%" y="-44.9%" width="214.6%" height="202.5%" filterUnits="objectBoundingBox" id="c"><feMorphology radius="2.5" operator="dilate" in="SourceAlpha" result="shadowSpreadOuter1"/><feOffset dy="5" in="shadowSpreadOuter1" result="shadowOffsetOuter1"/><feGaussianBlur stdDeviation="10" in="shadowOffsetOuter1" result="shadowBlurOuter1"/><feColorMatrix values="0 0 0 0 0 0 0 0 0 0.282352941 0 0 0 0 0.439215686 0 0 0 0.202870245 0" in="shadowBlurOuter1"/></filter><path d="M75.05 20.55C62.155 12.954 54.877 4.904 52.307 1.39c0 0-.91-1.39-1.945-1.39-1.033 0-1.873 1.392-1.873 1.392-2.536 3.515-9.98 11.605-22.94 19.23C10.893 29.297 0 44.033 0 62.108c0 27.4 22.548 49.61 50.36 49.61 27.816 0 50.364-22.21 50.364-49.61 0-18.122-10.944-32.896-25.674-41.558" id="f"/><filter x="-39.7%" y="-31.3%" width="179.4%" height="171.6%" filterUnits="objectBoundingBox" id="e"><feMorphology radius="2.5" operator="dilate" in="SourceAlpha" result="shadowSpreadOuter1"/><feOffset dy="5" in="shadowSpreadOuter1" result="shadowOffsetOuter1"/><feGaussianBlur stdDeviation="10" in="shadowOffsetOuter1" result="shadowBlurOuter1"/><feColorMatrix values="0 0 0 0 0 0 0 0 0 0.282352941 0 0 0 0 0.439215686 0 0 0 0.202615489 0" in="shadowBlurOuter1"/></filter><path d="M108.256 30.305c-18.6-11.2-29.1-23.07-32.806-28.254 0 0-1.312-2.05-2.806-2.05-1.49 0-2.7 2.053-2.7 2.053-3.658 5.184-14.398 17.114-33.09 28.36C15.715 43.203 0 64.936 0 91.593c0 40.407 32.524 73.16 72.64 73.16 40.125 0 72.648-32.753 72.648-73.16 0-26.726-15.785-48.515-37.032-61.288" id="h"/><filter x="-27.5%" y="-21.2%" width="155.1%" height="148.6%" filterUnits="objectBoundingBox" id="g"><feMorphology radius="2.5" operator="dilate" in="SourceAlpha" result="shadowSpreadOuter1"/><feOffset dy="5" in="shadowSpreadOuter1" result="shadowOffsetOuter1"/><feGaussianBlur stdDeviation="10" in="shadowOffsetOuter1" result="shadowBlurOuter1"/><feColorMatrix values="0 0 0 0 0 0 0 0 0 0.282352941 0 0 0 0 0.439215686 0 0 0 0.198369565 0" in="shadowBlurOuter1"/></filter></defs><g fill="none" fill-rule="evenodd"><path d="M433.593 109.345C365.57 68.935 327.178 26.1 313.62 7.4c0 0-4.796-7.4-10.26-7.4-5.445 0-9.877 7.408-9.877 7.408-13.374 18.703-52.648 61.75-121.002 102.327C95.166 155.888 37.704 234.3 37.704 330.478c0 145.8 118.94 263.983 265.643 263.983 146.736 0 265.673-118.18 265.673-263.982 0-96.428-57.73-175.045-135.427-221.133" fill="#157CC1"/><path d="M401.763 226.042c-51.66-30.69-80.816-63.22-91.113-77.422 0 0-3.643-5.62-7.792-5.62-4.135 0-7.5 5.626-7.5 5.626-10.158 14.204-39.984 46.897-91.895 77.712-58.718 35.05-102.357 94.6-102.357 167.642 0 110.728 90.328 200.48 201.74 200.48 111.44 0 201.766-89.752 201.766-200.48 0-73.232-43.842-132.937-102.85-167.938" fill="#37A9EF"/><path d="M368.035 439.86c-9.277-31.19 13.96-76.622-16.717-98.44-.83-27.836-23.643-50.154-51.683-50.154-28.563 0-51.72 23.157-51.72 51.72 0 17.822-7.08 34.917-19.684 47.52l-29.798 29.8c-24.864 24.86-24.864 65.165 0 90.025 24.86 24.862 65.17 24.862 90.03 0l11.702-11.7c8.973-8.974 21.145-14.015 33.836-14.015 22.272 0 39.693-20.484 34.708-42.19-.196-.857-.42-1.71-.673-2.564" fill="#004870"/><path d="M376.164 581.485H228.156l9.852-23.427c9.646-22.937 11.288-48.452 4.662-72.437l-12.287-44.488c-3.595-9.994.842-21.428 10.603-25.615 4.465-1.916 9.646-2.32 14.778-.66l30.727 9.936h31.34l30.726-9.936c.57-.184 1.137-.34 1.705-.477 15.815-3.723 29.02 12.66 23.06 27.772l-11.354 38.564c-6.84 23.24-5.873 48.083 2.75 70.72l11.448 30.05z" fill="#FFBB05"/><path d="M329.63 443.31c16.812 0 31.06-10.854 36.207-25.926-4.294-3.03-9.77-4.41-15.608-3.033-.57.134-1.138.293-1.706.478l-30.728 9.935H296.87c6.703 11.1 18.847 18.548 32.76 18.548" fill="#FFA705"/><path d="M317.858 425.662l-9.225 11.685c-1.955 4.89-10.99 4.89-12.946 0l-9.225-11.685v-15.54h31.396v15.54z" fill="#F98D66"/><path d="M302.16 418.003c-21.144 0-38.285-17.14-38.285-38.283v-37.397h76.57v37.397c0 21.143-17.14 38.283-38.285 38.283" fill="#F9A285"/><path d="M258.065 361.87c24.353 0 44.095-19.74 44.095-44.092l-44.095 9.356v34.737z" fill="#004870"/><path d="M276.997 371.653c0 5.954-4.828 10.782-10.783 10.782-5.953 0-10.78-4.828-10.78-10.782 0-5.955 4.827-10.783 10.78-10.783 5.955 0 10.783 4.828 10.783 10.783M348.887 371.653c0 5.954-4.828 10.782-10.783 10.782-5.953 0-10.78-4.828-10.78-10.782 0-5.955 4.827-10.783 10.78-10.783 5.955 0 10.783 4.828 10.783 10.783" fill="#F9A285"/><path d="M272.4 306.02c0 33.192 31.074 60.1 69.405 60.1v-42.174L272.4 306.02z" fill="#004870"/><path d="M316.974 388.33c0 8.182-6.634 14.813-14.813 14.813-8.18 0-14.814-6.63-14.814-14.812" fill="#FFF"/><path d="M286.462 425.662v18.35s.83 12.507 15.697 7.51c14.866-5 15.7-25.86 15.7-25.86" fill="#F98D66"/><path d="M293.08 371.056c0 2.35-1.907 4.256-4.258 4.256-2.35 0-4.257-1.906-4.257-4.256 0-2.35 1.907-4.257 4.257-4.257 2.35 0 4.257 1.905 4.257 4.256" fill="#094064"/><path d="M279.627 367.653c-.072 0-.145-.007-.22-.02-.634-.12-1.05-.73-.93-1.367.926-4.923 5.688-8.18 10.61-7.253.635.117 1.054.727.935 1.364-.117.633-.737 1.054-1.364.933-3.686-.685-7.197 1.73-7.885 5.39-.105.562-.596.953-1.146.953" fill-opacity=".243" fill="#FC4D04"/><path d="M319.755 371.056c0 2.35-1.906 4.256-4.257 4.256-2.35 0-4.257-1.906-4.257-4.256 0-2.35 1.907-4.257 4.258-4.257 2.35 0 4.257 1.905 4.257 4.256" fill="#094064"/><path d="M303.44 382.625h-4.53c-1.45 0-2.763-.8-3.432-2.084-.648-1.24-.575-2.717.18-3.886l4.63-11.58c.24-.6.923-.89 1.52-.65.6.238.89.92.65 1.518l-4.676 11.694c-.033.084-.075.164-.13.24-.33.476-.37 1.067-.102 1.584.272.517.777.826 1.36.826h4.53c.645 0 1.17.524 1.17 1.17 0 .645-.525 1.17-1.17 1.17" fill-opacity=".24" fill="#FC4D04"/><path d="M402.445 549.812h-200.57v-100.56c0-5.82 4.718-10.537 10.538-10.537h179.494c5.82 0 10.538 4.717 10.538 10.536v100.562z" fill="#E6E6E5"/><path d="M391.908 438.715H212.41c-5.818 0-10.534 4.717-10.534 10.536v7.018c0-5.82 4.716-10.537 10.535-10.537H391.91c5.82 0 10.537 4.72 10.537 10.538v-7.017c0-5.818-4.717-10.535-10.537-10.535" fill="#FFF"/><path d="M312.44 481.678c-5.37-3.21-8.4-6.612-9.47-8.097 0 0-.38-.59-.81-.59-.43 0-.78.59-.78.59-1.056 1.486-4.155 4.906-9.55 8.13-6.104 3.666-10.64 9.894-10.64 17.533 0 11.582 9.387 20.968 20.968 20.968 11.585 0 20.974-9.385 20.974-20.967 0-7.66-4.56-13.905-10.692-17.565" fill="#157CC1"/><path fill="#FFF" d="M302.078 489l2.804 5.684 6.273.91-4.54 4.425 1.072 6.243-5.61-2.95-5.608 2.95 1.07-6.244-4.54-4.427 6.273-.91"/><path d="M254.496 606.096c61.567-2.24 119.586-17.11 170.763-41.655 18.15-8.717 23.618-28.31 14.255-42.48.003 0 .003 0 0 0-9.412-14.226-27.94-19.12-43.325-11.964-44.492 20.818-95.29 33.25-149.446 34.332-18.68.396-34.458 12.977-33.843 30.233.567 17.218 19.83 32.395 41.596 31.536" fill="#0F5E93"/><path d="M184.328 605.4l67.667-3.783-2.783-49.79-67.667 3.784c-13.75.768-24.274 12.537-23.505 26.288.767 13.75 12.537 24.273 26.288 23.503" fill="#094064"/><path d="M202.776 598.37c-.62 0-1.134-.485-1.167-1.11l-1.842-35.286c-.035-.646.46-1.195 1.107-1.228.68-.063 1.192.463 1.228 1.106l1.84 35.287c.035.645-.46 1.194-1.106 1.227-.02.002-.04.002-.06.002M193.715 598.37c-.62 0-1.135-.485-1.168-1.11l-1.84-35.286c-.035-.646.46-1.195 1.106-1.228.646-.063 1.195.463 1.228 1.106l1.842 35.287c.035.645-.46 1.194-1.107 1.227-.018.002-.04.002-.06.002" fill="#FFF"/><path fill="#0977AF" d="M213.91 612.82l57.56-3.22-3.89-69.54-57.557 3.22"/><path d="M349.824 606.096c-61.567-2.24-119.586-17.11-170.763-41.655-18.15-8.717-23.618-28.31-14.255-42.48-.002 0-.002 0 0 0 9.412-14.226 27.942-19.12 43.325-11.964 44.493 20.818 95.29 33.25 149.446 34.332 18.68.396 34.458 12.977 33.843 30.233-.567 17.218-19.83 32.395-41.596 31.536" fill="#157CC1"/><g transform="translate(352.137 551.74)"><mask id="b" fill="#fff"><use xlink:href="#a"/></mask><path d="M67.855 53.662L.188 49.877 2.97.087 70.64 3.87c13.75.768 24.275 12.538 23.505 26.288-.767 13.75-12.537 24.273-26.288 23.504" fill="#094064" mask="url(#b)"/></g><path d="M407.338 598.37c-.02 0-.042 0-.06-.003-.646-.033-1.142-.582-1.107-1.228l1.842-35.288c.035-.645.617-1.174 1.228-1.106.645.033 1.14.582 1.106 1.228l-1.84 35.287c-.034.625-.548 1.11-1.168 1.11M416.402 598.37c-.02 0-.043 0-.06-.003-.647-.033-1.143-.582-1.108-1.228l1.84-35.288c.034-.645.58-1.174 1.23-1.106.645.033 1.14.582 1.106 1.228l-1.84 35.287c-.034.625-.55 1.11-1.168 1.11" fill="#FFF"/><path fill="#37A9EF" d="M396.978 612.82l-57.56-3.22 3.89-69.54 57.557 3.22"/><g><g transform="translate(404 337)"><use fill="#000" filter="url(#c)" xlink:href="#d"/><use fill="#157CC1" xlink:href="#d"/></g><path d="M427.93 380.042c0-8.093 4.574-13.823 12.478-13.823 3.25 0 5.977 1.12 7.903 2.764l-2.567 4.287c-1.444-1.36-2.968-2.123-5.335-2.123-4.052 0-6.7 3.486-6.7 7.733 0 .2 0 .4.04.56 1.244-1.802 3.93-3.405 6.86-3.405 4.814 0 9.107 2.925 9.107 8.615 0 5.21-4.132 9.175-10.23 9.175-8.144 0-11.554-6.25-11.554-13.783zm16.008 4.848c0-2.884-2.367-4.127-4.975-4.127-2.006 0-3.93 1.002-5.215 2.565.24 2.564 1.685 5.53 5.456 5.53 3.09 0 4.734-2.084 4.734-3.968z" fill="#FFF"/><g transform="translate(105 245)"><use fill="#000" filter="url(#e)" xlink:href="#f"/><use fill="#FFF" xlink:href="#f"/></g><path fill="#157CC1" d="M145.407 326.307h9.428l14.988-34.03v-5.93h-30.278v7.49h20.306"/><g><g transform="translate(269 104)"><use fill="#000" filter="url(#g)" xlink:href="#h"/><use fill="#004870" xlink:href="#h"/></g><path d="M316.012 208.668c0-7.93 6.087-14.002 13.816-16.744-7.15-2.448-12.753-7.246-12.753-15.373 0-12.24 12.85-17.233 24.83-17.233 11.883 0 24.828 4.994 24.828 17.234 0 8.128-5.7 12.926-12.85 15.374 7.73 2.742 13.913 8.813 13.913 16.744 0 12.142-12.366 18.115-25.892 18.115-13.525 0-25.892-5.875-25.892-18.115zm36.713-29.963c0-4.602-4.54-7.44-10.82-7.44-6.377 0-10.918 2.838-10.918 7.44 0 5.092 6.956 7.344 10.917 7.932 3.96-.588 10.82-2.84 10.82-7.932zm1.16 28.3c0-5.68-8.02-8.422-11.98-8.912-4.058.49-11.98 3.23-11.98 8.91 0 4.8 5.217 7.834 11.98 7.834 6.57 0 11.98-3.035 11.98-7.833z" fill="#FFF"/></g></g><path fill="#157CC1" opacity=".196" d="M264 252l1.854 3.757 4.146.6-3 2.926.707 4.127-3.707-1.95-3.707 1.95.708-4.127-3-2.925 4.146-.6"/><path fill="#FFF" opacity=".196" d="M148 427l1.854 3.757 4.146.6-3 2.926.707 4.127-3.707-1.95-3.707 1.95.708-4.127-3-2.925 4.146-.6"/><path fill="#157CC1" opacity=".196" d="M478 84l1.854 3.757 4.146.6-3 2.926.707 4.127L478 93.46l-3.707 1.95.708-4.127-3-2.925 4.146-.6"/><path fill="#FFF" opacity=".196" d="M189 35l1.854 3.757 4.146.6-3 2.926.707 4.127L189 44.46l-3.707 1.95.708-4.127-3-2.925 4.146-.6M528.68 296l2.992 6.06 6.69.97-4.842 4.72 1.142 6.66-5.98-3.145-5.983 3.145 1.142-6.66-4.842-4.72 6.69-.97"/><path fill="#37A9EF" opacity=".196" d="M9.68 390l2.992 6.06 6.69.97-4.842 4.72 1.142 6.66-5.98-3.145-5.983 3.145 1.142-6.66L0 397.03l6.69-.97"/><path fill="#FFF" opacity=".196" d="M260.68 95l2.992 6.06 6.69.97-4.842 4.72 1.142 6.66-5.98-3.145-5.983 3.145 1.142-6.66-4.842-4.72 6.69-.97"/><path fill="#004870" opacity=".196" d="M124.25 201l4.71 9.547 10.538 1.53-7.626 7.433 1.8 10.49-9.423-4.954-9.423 4.954 1.8-10.49-7.627-7.434 10.538-1.53"/></g></svg>